<svg id="Layer_1" xmlns="http://www.w3.org/2000/svg" viewBox="0 0 1000 1000"><style>.st0{fill-rule:evenodd;clip-rule:evenodd}</style><g id="XMLID_1_"><path id="XMLID_3_" class="st0" d="M923.6 234.4c48.7 77.1 76.8 168.5 76.8 266.4 0 98-28.2 189.3-76.8 266.4L657.1 500.8l266.5-266.4z"/><path id="XMLID_2_" class="st0" d="M500.4.8c138.1 0 263.1 56 353.5 146.5L578.8 422.4l-22 22-56.4-442-52.3 409.9-189.7-153.5 153.5 189.8L2 500.8l409.9 52.3-153.5 189.7 189.8-153.5 52.3 409.9 56.4-442 22 22L854 854.4c-90.5 90.5-215.5 146.4-353.5 146.4-276.1 0-500-223.9-500-500S224.3.8 500.4.8z"/></g></svg>